<?xml version="1.0" encoding="UTF-8"?>
<svg xmlns="http://www.w3.org/2000/svg" version="1.1" viewBox="0 0 1133.9 1133.9">
  <defs>
    <style>
      .cls-1 {
        fill: #dd3f8e;
      }

      .cls-2 {
        fill: #1e1f1d;
      }
    </style>
  </defs>
  <!-- Generator: Adobe Illustrator 28.6.0, SVG Export Plug-In . SVG Version: 1.2.0 Build 709)  -->
  <g>
    <g id="Warstwa_1">
      <circle class="cls-2" cx="574.1" cy="563.8" r="526.5"/>
      <path class="cls-1" d="M468.5,892.5h-212.4c-.2-173.4-.4-346.9-.6-520.3,1-13.9,5.9-57,40.2-93,44-46.2,102.9-45.4,118.1-45.2,14.1.2,75.5,1,118.8,50.3,28,31.9,34.1,67.8,35.8,82.9v351.3h39v-350.6c.3-13.8,2.9-49.3,28.3-81.7,36.8-47,93.2-51.4,113.1-51.5,11.1,0,70.3-.5,111.2,47.1,29,33.8,32.2,72.3,32.7,85.5v526h-125.1V378.5c-1.1-8.9-8.3-15.7-17-16.3-9.2-.7-17.6,5.8-19.5,15.1v516.5h-223.7c.4-43.7-2-91.6-8.8-142.6-21.4-161.6-77.8-290.3-128.2-379.5-5-8.2-15.7-10.9-23.9-6.3-8.4,4.8-11.4,16-6.3,24.5,5,8.3,12.1,20.4,20.1,35.2,42.4,78.9,60.8,145.9,72.9,191,19.3,71.9,26.8,130.8,30.2,164,4.4,43.8,5.4,82,5,112.5Z"/>
    </g>
  </g>
</svg>