<?xml version="1.0" encoding="UTF-8"?>
<svg xmlns="http://www.w3.org/2000/svg" version="1.1" viewBox="0 0 1847.4 466.3">
  <defs>
    <style>
      .cls-1 {
        fill: #1e1e1c;
      }
    </style>
  </defs>
  <!-- Generator: Adobe Illustrator 28.6.0, SVG Export Plug-In . SVG Version: 1.2.0 Build 709)  -->
  <g>
    <g id="Warstwa_1">
      <g>
        <path class="cls-1" d="M425.4,62.7c-60.7.7-109,49.9-108.3,110.3.7,63.2,50.4,112.6,112.4,111.5,59.4-1,108.7-51.4,108.8-111.2.1-62.3-49.9-111.4-112.8-110.7ZM500.9,181.7l-64.9,64.9c-18.9,18.9-49.5,18.9-68.4,0l-4.6-4.6h0c-.7-.6-1.3-1.3-2-2l-6.6-6.6c-18.9-18.9-18.9-49.5,0-68.4l64.9-64.9c18.9-18.9,49.5-18.9,68.4,0l13.2,13.2c18.9,18.9,18.9,49.5,0,68.4Z"/>
        <path class="cls-1" d="M145.5,285.4h-71.6c0-58.5-.1-116.9-.2-175.4.3-4.7,2-19.2,13.6-31.4,14.8-15.6,34.7-15.3,39.8-15.3,4.8,0,25.4.3,40,16.9,9.5,10.8,11.5,22.8,12.1,28v118.4h13.1v-118.2c0-4.6,1-16.6,9.5-27.5,12.4-15.9,31.4-17.3,38.1-17.4,3.7,0,23.7-.2,37.5,15.9,9.8,11.4,10.9,24.4,11,28.8v177.3h-42.2V112.1c-.4-3-2.8-5.3-5.7-5.5-3.1-.2-5.9,2-6.6,5.1v174.2h-75.4c.1-14.7-.7-30.9-3-48.1-7.2-54.5-26.2-97.9-43.2-128-1.7-2.8-5.3-3.7-8.1-2.1-2.8,1.6-3.8,5.4-2.1,8.3,1.7,2.8,4.1,6.9,6.8,11.9,14.3,26.6,20.5,49.2,24.6,64.4,6.5,24.2,9,44.1,10.2,55.3,1.5,14.8,1.8,27.7,1.7,37.9Z"/>
        <path class="cls-1" d="M929.9,221c-13.5,46.4-73.2,74.8-126.7,60.4-57.7-15.5-93.4-75.4-79.3-133,14.7-59.9,71.7-96.2,132.2-84.1,56.1,11.2,95.2,68.4,84.4,126.9h-189.3c-4.4,26.8,5.5,47.6,26.9,59.4,1.8,1,8.7,4.7,18.9,6.5,22.3,4,40.8-4.5,48.9-8.3,17.5-8.3,28.7-20.2,34.9-28.1,16.4,0,32.8.2,49.3.3ZM766.6,156c2.5,0,101.1-.2,147.8-.2,3.1-27-6.6-46.8-27.8-58.6-10.7-5.9-22.4-8.4-33.9-7.2-11.9,1.2-20.9,6.2-32.1,14.2-13.6,9.7-33.4,26-54,51.8Z"/>
        <path class="cls-1" d="M724.7,62.1c-18.5,70.9-37.1,141.9-55.6,212.8-.7,1.5-1.9,3.5-3.8,5.3-5,4.7-11.3,5-13.1,4.9-10.6,0-21.2,0-31.8,0h-30.5c-17.2-74.3-34.3-148.7-51.5-223h15c.5,0,17.6,0,18.1,0,2.9.1,7.2.8,11,3.6,6.3,4.7,7.5,12.7,8.1,15.6,10.2,49,22.2,97.6,33.6,146.4,1.7,7.5,4,14.8,6,22.2.2.2,1.6,1.8,3.9,1.8,2.2,0,3.5-1.5,3.7-1.7.8-2.8,1.7-5.6,2.5-8.3,16.4-55.1,31.3-109.9,44.8-164.4.6-2.9,2.3-9.1,7.6-12.5,2.7-1.7,5.3-2.4,10.7-2.4,7.1,0,14.2-.1,21.3-.2Z"/>
        <path class="cls-1" d="M1601.9,62.1h-15.8v75.1c0,5.6,0,11.1,0,16.7v29.8h0c0,10.8,0,21.6,0,32.4,0,9.4,0,18.9,0,28.3-.1.2-1,1.4-2.5,1.7-1.4.2-2.8-.4-3.7-1.6-22.3-57-44.6-114-66.8-171-.8-1.8-2.2-4.4-4.8-6.7-5.8-5.1-12.9-4.8-14.6-4.7-13.3,0-26.7,0-40,0-1.3.2-5.4.9-8.7,4.4-4.5,4.8-4,10.8-3.9,11.7,0,54.3-.1,200.6-.1,206.9h46.9c0-60.4,0-120.8,0-181.2,25.6,75.9,48.9,131,60.3,150.5,12.6,21.8,26.5,27.1,29.9,28.3,4,1.4,7.5,1.9,9.6,2.1,4.8,0,9.5.1,14.3.2,0-3.3-.6-71.3,0-101.4h0V62.1Z"/>
        <polygon class="cls-1" points="1773.8 62.1 1717.6 62.1 1717.6 62 1671 62 1671 62.1 1615.7 62.1 1615.7 77.1 1671 77.1 1671 285.1 1717.6 285.1 1717.6 77.1 1773.8 77.1 1773.8 62.1"/>
        <path class="cls-1" d="M1408,221.7c-13.5,46.4-73.2,74.8-126.7,60.4-57.7-15.5-93.4-75.4-79.3-133,14.7-59.9,71.7-96.2,132.2-84.1,56.1,11.2,95.2,68.4,84.4,126.9h-189.3c-4.4,26.8,5.5,47.6,26.9,59.4,1.8,1,8.7,4.7,18.9,6.5,22.3,4,40.8-4.5,48.9-8.3,17.5-8.3,28.7-20.2,34.9-28.1,16.4,0,32.8.2,49.3.3ZM1244.7,156.8c2.5,0,101.1-.2,147.8-.2,3.1-27-6.6-46.8-27.8-58.6-10.7-5.9-22.4-8.4-33.9-7.2-11.9,1.2-20.9,6.2-32.1,14.2-13.6,9.7-33.4,26-54,51.8Z"/>
        <g>
          <path class="cls-1" d="M1296.8,390.4c-.8-1.6,0-2.8,1.7-3.3l2.4-.6c1.6-.4,2.5.2,3.3,1.7,2.6,4.8,8.5,9,16.9,9s16.5-5.5,16.5-12.3-5.4-10.2-11.4-12.3l-11.2-3.8c-13.3-4.3-15.7-12-15.7-18,0-11.8,10.4-19,22.3-19s18.7,5.3,21.6,13.2c.6,1.6-.2,2.8-1.8,3.3l-2.1.6c-1.6.5-2.6-.1-3.3-1.7-2.2-5.3-7.5-8.3-14.4-8.3s-14.1,4.3-14.1,11.6,1.2,7.9,10.1,11.1l11.3,4c10.3,3.3,16.8,10.6,16.8,18.7,0,11.6-9.5,19.9-24.1,19.9s-21-6.1-24.5-13.8Z"/>
          <path class="cls-1" d="M1419.4,335.6v1.2c0,1.6-1,2.6-2.7,2.6h-21.8v61c0,1.7-1,2.7-2.7,2.7h-2.5c-1.7,0-2.7-1-2.7-2.7v-61h-21.7c-1.7,0-2.7-1-2.7-2.6v-1.2c0-1.7,1-2.7,2.7-2.7h51.4c1.7,0,2.7,1,2.7,2.7Z"/>
          <path class="cls-1" d="M1441.5,377.5v-41.8c0-1.7,1-2.7,2.7-2.7h2.5c1.7,0,2.7,1,2.7,2.7v41.8c0,13.1,9,19.7,19.6,19.7s19.5-6.5,19.5-19.7v-41.8c0-1.7,1-2.7,2.7-2.7h2.5c1.7,0,2.7,1,2.7,2.7v41.8c0,17.7-12.6,26.8-27.4,26.8s-27.5-9.1-27.5-26.8Z"/>
          <path class="cls-1" d="M1526.9,400.4v-64.8c0-1.7,1-2.7,2.7-2.7h19.3c21.6,0,35.6,15.7,35.6,35.1s-14,35.1-35.6,35.1h-19.3c-1.7,0-2.7-1-2.7-2.7ZM1548.9,396.6c16.6,0,27.5-12.8,27.5-28.6s-10.9-28.6-27.5-28.6h-14v57.2h14Z"/>
          <path class="cls-1" d="M1610.8,400.4v-64.8c0-1.7,1-2.7,2.7-2.7h2.5c1.7,0,2.7,1,2.7,2.7v64.8c0,1.7-1,2.7-2.7,2.7h-2.5c-1.7,0-2.7-1-2.7-2.7Z"/>
          <path class="cls-1" d="M1644.9,368c0-20,16.5-36.2,36.4-36.2s36.4,16.2,36.4,36.2-16.4,36.2-36.4,36.2-36.4-16.3-36.4-36.2ZM1709.7,368c0-16.4-12.8-29.1-28.4-29.1s-28.3,12.7-28.3,29.1,12.7,29.1,28.3,29.1,28.4-12.7,28.4-29.1Z"/>
        </g>
        <path class="cls-1" d="M1036.2,285.1h-71.6c0-58.5-.1-116.9-.2-175.4.3-4.7,2-19.2,13.6-31.4,14.8-15.6,34.7-15.3,39.8-15.3,4.8,0,25.4.3,40,16.9,9.5,10.8,11.5,22.8,12.1,28v118.4h13.1v-118.2c0-4.6,1-16.6,9.5-27.5,12.4-15.9,31.4-17.3,38.1-17.4,3.7,0,23.7-.2,37.5,15.9,9.8,11.4,10.9,24.4,11,28.8v177.3h-42.2V111.8c-.4-3-2.8-5.3-5.7-5.5-3.1-.2-5.9,2-6.6,5.1v174.2h-75.4c.1-14.7-.7-30.9-3-48.1-7.2-54.5-26.2-97.9-43.2-128-1.7-2.8-5.3-3.7-8.1-2.1-2.8,1.6-3.8,5.4-2.1,8.3,1.7,2.8,4.1,6.9,6.8,11.9,14.3,26.6,20.5,49.2,24.6,64.4,6.5,24.2,9,44.1,10.2,55.3,1.5,14.8,1.8,27.7,1.7,37.9Z"/>
      </g>
    </g>
  </g>
</svg>