<?xml version="1.0" encoding="UTF-8"?>
<svg xmlns="http://www.w3.org/2000/svg" version="1.1" viewBox="0 0 1133.9 794">
  <defs>
    <style>
      .cls-1 {
        fill: #1e1e1c;
      }
    </style>
  </defs>
  <!-- Generator: Adobe Illustrator 28.6.0, SVG Export Plug-In . SVG Version: 1.2.0 Build 709)  -->
  <g>
    <g id="Warstwa_1">
      <g>
        <path class="cls-1" d="M469.4,64.6c-68.7.8-123.3,56.5-122.6,124.8.8,71.5,57.1,127.3,127.1,126.2,67.2-1.1,122.9-58.1,123.1-125.8.1-70.5-56.5-126.1-127.6-125.2ZM554.8,199.2l-73.5,73.5c-21.4,21.4-56,21.4-77.3,0l-5.2-5.2h0c-.8-.7-1.5-1.5-2.3-2.3l-7.5-7.5c-21.4-21.4-21.4-56,0-77.3l73.5-73.5c21.4-21.4,56-21.4,77.3,0l14.9,14.9c21.4,21.4,21.4,56,0,77.3Z"/>
        <path class="cls-1" d="M807.3,63.9c-20.9,80-41.8,160.1-62.7,240.1-.8,1.7-2.1,3.9-4.3,6-5.6,5.4-12.8,5.6-14.8,5.6-12,0-23.9,0-35.9,0h-34.5c-19.4-83.9-38.7-167.8-58.1-251.7h17c.6,0,19.9,0,20.5,0,3.3.1,8.1.9,12.4,4.1,7.1,5.3,8.5,14.3,9.1,17.6,11.5,55.3,25.1,110.2,38,165.2,2,8.4,4.5,16.7,6.7,25.1.2.2,1.8,2,4.3,2,2.5,0,4-1.7,4.2-1.9.9-3.1,1.9-6.3,2.8-9.4,18.5-62.1,35.3-124,50.6-185.5.7-3.3,2.6-10.3,8.6-14.2,3-1.9,5.9-2.7,12-2.8,8,0,16-.1,24.1-.2Z"/>
        <path class="cls-1" d="M1038.9,243.2c-15.2,52.3-82.6,84.5-143,68.2-65.1-17.5-105.4-85.1-89.5-150.1,16.6-67.6,80.9-108.5,149.2-94.9,63.4,12.7,107.4,77.2,95.2,143.1h-213.6c-5,30.3,6.3,53.7,30.3,67,2,1.1,9.8,5.3,21.3,7.4,25.1,4.5,46.1-5.1,55.1-9.4,19.8-9.4,32.4-22.8,39.4-31.7,18.5.1,37.1.2,55.6.3ZM854.6,169.9c2.8,0,114.1-.2,166.8-.2,3.5-30.4-7.5-52.8-31.4-66.1-12.1-6.7-25.3-9.5-38.3-8.1-13.4,1.4-23.6,7-36.3,16-15.4,11-37.7,29.3-60.9,58.4Z"/>
        <path class="cls-1" d="M826.3,345h-17.8v84.8c0,6.3,0,12.5,0,18.8v33.6h0c0,12.2,0,24.4,0,36.5,0,10.6,0,21.3,0,31.9-.2.2-1.1,1.6-2.9,1.9-1.6.3-3.2-.4-4.2-1.8-25.1-64.3-50.3-128.6-75.4-192.9-.8-2-2.5-4.9-5.4-7.6-6.5-5.8-14.6-5.4-16.5-5.3-15.1,0-30.1,0-45.2,0-1.5.2-6.1,1-9.9,4.9-5.1,5.4-4.5,12.2-4.4,13.3,0,61.3-.1,226.4-.1,233.5h53c0-68.1,0-136.3-.1-204.4,28.9,85.7,55.2,147.8,68,169.9,14.3,24.5,29.9,30.5,33.7,31.9,4.5,1.6,8.4,2.2,10.8,2.4,5.4,0,10.7.2,16.1.2,0-3.7-.7-80.4,0-114.4h0v-137.2Z"/>
        <polygon class="cls-1" points="1053.6 345 990.2 345 990.2 345 937.6 345 937.6 345 875.2 345 875.2 362 937.6 362 937.6 596.7 990.2 596.7 990.2 362 1053.6 362 1053.6 345"/>
        <path class="cls-1" d="M594.2,525.1c-15.2,52.3-82.6,84.5-143,68.2-65.1-17.5-105.4-85.1-89.5-150.1,16.6-67.6,80.9-108.5,149.2-94.9,63.4,12.7,107.4,77.2,95.2,143.1h-213.6c-5,30.3,6.3,53.7,30.3,67,2,1.1,9.8,5.3,21.3,7.4,25.1,4.5,46.1-5.1,55.1-9.4,19.8-9.4,32.4-22.8,39.4-31.7,18.5.1,37.1.2,55.6.3ZM410,451.8c2.8,0,114.1-.2,166.8-.2,3.5-30.4-7.5-52.8-31.4-66.1-12.1-6.7-25.3-9.5-38.3-8.1-13.4,1.4-23.6,7-36.3,16-15.4,11-37.7,29.3-60.9,58.4Z"/>
        <g>
          <path class="cls-1" d="M577.1,714.6c-.9-1.8,0-3.2,1.9-3.7l2.7-.7c1.8-.5,2.8.2,3.7,1.9,2.9,5.4,9.6,10.2,19,10.2s18.6-6.2,18.6-13.9-6.1-11.5-12.9-13.9l-12.7-4.3c-15.1-4.9-17.8-13.6-17.8-20.3,0-13.4,11.8-21.4,25.1-21.4s21.1,6,24.3,14.9c.7,1.8-.2,3.2-2,3.7l-2.4.7c-1.8.6-2.9-.1-3.7-1.9-2.5-6-8.5-9.4-16.3-9.4s-16,4.9-16,13.1,1.4,8.9,11.4,12.6l12.8,4.5c11.7,3.7,18.9,12,18.9,21.1,0,13.1-10.8,22.4-27.2,22.4s-23.7-6.9-27.6-15.6Z"/>
          <path class="cls-1" d="M715.5,652.7v1.4c0,1.8-1.1,2.9-3.1,2.9h-24.6v68.8c0,1.9-1.1,3.1-3.1,3.1h-2.8c-1.9,0-3.1-1.1-3.1-3.1v-68.8h-24.5c-1.9,0-3.1-1.1-3.1-2.9v-1.4c0-1.9,1.1-3.1,3.1-3.1h58c1.9,0,3.1,1.1,3.1,3.1Z"/>
          <path class="cls-1" d="M740.3,699.9v-47.2c0-1.9,1.1-3.1,3.1-3.1h2.8c1.9,0,3.1,1.1,3.1,3.1v47.2c0,14.8,10.2,22.2,22.1,22.2s22-7.4,22-22.2v-47.2c0-1.9,1.1-3.1,3.1-3.1h2.8c1.9,0,3.1,1.1,3.1,3.1v47.2c0,19.9-14.3,30.2-30.9,30.2s-31-10.3-31-30.2Z"/>
          <path class="cls-1" d="M836.8,725.9v-73.1c0-1.9,1.1-3.1,3.1-3.1h21.7c24.3,0,40.2,17.8,40.2,39.6s-15.9,39.6-40.2,39.6h-21.7c-1.9,0-3.1-1.1-3.1-3.1ZM861.6,721.6c18.7,0,31-14.5,31-32.3s-12.3-32.3-31-32.3h-15.9v64.5h15.9Z"/>
          <path class="cls-1" d="M931.4,725.9v-73.1c0-1.9,1.1-3.1,3.1-3.1h2.8c1.9,0,3.1,1.1,3.1,3.1v73.1c0,1.9-1.1,3.1-3.1,3.1h-2.8c-1.9,0-3.1-1.1-3.1-3.1Z"/>
          <path class="cls-1" d="M969.9,689.3c0-22.5,18.6-40.9,41.1-40.9s41.1,18.3,41.1,40.9-18.5,40.9-41.1,40.9-41.1-18.3-41.1-40.9ZM1043,689.3c0-18.5-14.5-32.8-32-32.8s-31.9,14.4-31.9,32.8,14.4,32.8,31.9,32.8,32-14.4,32-32.8Z"/>
        </g>
        <path class="cls-1" d="M160.8,313.5h-80.3c0-65.5-.2-131.1-.2-196.6.4-5.2,2.2-21.5,15.2-35.1,16.6-17.5,38.9-17.2,44.6-17.1,5.3,0,28.5.4,44.9,19,10.6,12.1,12.9,25.6,13.5,31.3v132.7h14.7V115.2c.1-5.2,1.1-18.6,10.7-30.9,13.9-17.8,35.2-19.4,42.7-19.5,4.2,0,26.6-.2,42,17.8,11,12.8,12.2,27.3,12.3,32.3v198.7h-47.3V119.2c-.4-3.3-3.1-5.9-6.4-6.2-3.5-.3-6.7,2.2-7.4,5.7v195.2h-84.5c.1-16.5-.8-34.6-3.3-53.9-8.1-61.1-29.4-109.7-48.4-143.4-1.9-3.1-5.9-4.1-9-2.4-3.2,1.8-4.3,6-2.4,9.3,1.9,3.1,4.6,7.7,7.6,13.3,16,29.8,23,55.1,27.5,72.2,7.3,27.2,10.1,49.4,11.4,62,1.7,16.6,2,31,1.9,42.5Z"/>
        <path class="cls-1" d="M160.8,596.7h-80.3c0-65.5-.2-131.1-.2-196.6.4-5.2,2.2-21.5,15.2-35.1,16.6-17.5,38.9-17.2,44.6-17.1,5.3,0,28.5.4,44.9,19,10.6,12.1,12.9,25.6,13.5,31.3v132.7h14.7v-132.5c.1-5.2,1.1-18.6,10.7-30.9,13.9-17.8,35.2-19.4,42.7-19.5,4.2,0,26.6-.2,42,17.8,11,12.8,12.2,27.3,12.3,32.3v198.7h-47.3v-194.5c-.4-3.3-3.1-5.9-6.4-6.2-3.5-.3-6.7,2.2-7.4,5.7v195.2h-84.5c.1-16.5-.8-34.6-3.3-53.9-8.1-61.1-29.4-109.7-48.4-143.4-1.9-3.1-5.9-4.1-9-2.4-3.2,1.8-4.3,6-2.4,9.3,1.9,3.1,4.6,7.7,7.6,13.3,16,29.8,23,55.1,27.5,72.2,7.3,27.2,10.1,49.4,11.4,62,1.7,16.6,2,31,1.9,42.5Z"/>
      </g>
    </g>
  </g>
</svg>